<svg version="1.2" baseProfile="tiny-ps" xmlns="http://www.w3.org/2000/svg" viewBox="0 0 465 465" width="465" height="465">
	<title>appointment-svg</title>
	<style>
		tspan { white-space:pre }
		.s0 { fill: #ffffff } 
	</style>
	<g id="Layer">
		<path id="Layer" class="s0" d="m135 27.5c0-4.14 3.36-7.5 7.5-7.5h202.5v-12.5c0-4.14 3.36-7.5 7.5-7.5c4.14 0 7.5 3.36 7.5 7.5v19.99v0.01v0.01v54.99c0 4.14-3.36 7.5-7.5 7.5c-4.14 0-7.5-3.36-7.5-7.5v-47.5h-202.5c-4.14 0-7.5-3.36-7.5-7.5z" />
		<path id="Layer" fill-rule="evenodd" class="s0" d="m440 27.5v300c0 0.25-0.01 0.5-0.04 0.75c-0.02 0.19-0.05 0.36-0.08 0.55c-0.01 0.06-0.02 0.12-0.03 0.18c-0.04 0.21-0.1 0.42-0.16 0.63c-0.01 0.02-0.01 0.05-0.02 0.08c-0.06 0.21-0.14 0.42-0.22 0.62c-0.01 0.02-0.01 0.04-0.02 0.07c-0.08 0.19-0.17 0.38-0.27 0.57c-0.02 0.03-0.03 0.06-0.05 0.09c-0.09 0.17-0.19 0.34-0.3 0.5c-0.03 0.04-0.05 0.09-0.08 0.13c-0.1 0.15-0.22 0.3-0.33 0.45c-0.04 0.05-0.07 0.1-0.11 0.14c-0.14 0.17-0.29 0.34-0.45 0.5c-0.01 0.01-0.03 0.03-0.04 0.05l-70 70c-0.02 0.02-0.04 0.03-0.06 0.05c-0.16 0.15-0.32 0.3-0.49 0.44c-0.05 0.04-0.11 0.08-0.17 0.13c-0.14 0.11-0.28 0.21-0.42 0.31c-0.05 0.03-0.1 0.06-0.15 0.09c-0.16 0.1-0.31 0.2-0.48 0.29c-0.04 0.02-0.08 0.04-0.11 0.06c-0.18 0.09-0.36 0.18-0.55 0.26c-0.03 0.01-0.05 0.02-0.08 0.03c-0.2 0.08-0.4 0.16-0.61 0.22c-0.03 0.01-0.05 0.01-0.08 0.02c-0.21 0.06-0.42 0.12-0.63 0.16c-0.06 0.01-0.12 0.02-0.18 0.03c-0.18 0.03-0.36 0.06-0.55 0.08c-0.25 0.03-0.5 0.04-0.75 0.04h-330c-4.14 0-7.5-3.36-7.5-7.5v-370c0-4.14 3.36-7.5 7.5-7.5h72.5v-12.5c0-4.14 3.36-7.5 7.5-7.5c4.14 0 7.5 3.36 7.5 7.5v75c0 4.14-3.36 7.5-7.5 7.5c-4.14 0-7.5-3.36-7.5-7.5v-47.5h-65v95h385v-95h-42.5c-4.14 0-7.5-3.36-7.5-7.5c0-4.14 3.36-7.5 7.5-7.5h50c4.14 0 7.5 3.36 7.5 7.5zm-400 362.5h315v-62.5c0-4.14 3.36-7.5 7.5-7.5h62.5v-175h-385v245zm330-55v44.39l44.39-44.39h-44.39z" />
		<path id="Layer" class="s0" d="m440 457.5c0 4.14-3.36 7.5-7.5 7.5h-400c-4.14 0-7.5-3.36-7.5-7.5c0-4.14 3.36-7.5 7.5-7.5h400c4.14 0 7.5 3.36 7.5 7.5z" />
		<path id="Layer" class="s0" d="m440 357.5v70c0 4.14-3.36 7.5-7.5 7.5h-400c-4.14 0-7.5-3.36-7.5-7.5v-10c0-4.14 3.36-7.5 7.5-7.5c4.14 0 7.5 3.36 7.5 7.5v2.5h385v-62.5c0-4.14 3.36-7.5 7.5-7.5c4.14 0 7.5 3.36 7.5 7.5z" />
		<path id="Layer" class="s0" d="m293.58 214v107c0 4.14-3.36 7.5-7.5 7.5c-4.14 0-7.5-3.36-7.5-7.5v-88.9l-8.6 8.6c-2.93 2.93-7.68 2.93-10.61 0c-2.93-2.93-2.93-7.68 0-10.61l21.4-21.4c2.14-2.15 5.37-2.78 8.17-1.63c2.8 1.16 4.63 3.9 4.63 6.93z" />
		<path id="Layer" class="s0" d="m242.18 241.89c0 9.87-4.09 19.06-10.97 25.62c6.88 6.56 10.97 15.75 10.97 25.62c0 19.51-15.87 35.38-35.38 35.38c-19.51 0-35.38-15.87-35.38-35.38c0-4.14 3.36-7.5 7.5-7.5c4.14 0 7.5 3.36 7.5 7.5c0 11.24 9.14 20.38 20.38 20.38c11.24 0 20.38-9.15 20.38-20.38c0-8.15-4.84-15.5-12.33-18.73c-2.75-1.19-4.53-3.89-4.53-6.89c0-3 1.78-5.7 4.53-6.89c7.49-3.23 12.33-10.58 12.33-18.73c0-11.24-9.14-20.38-20.38-20.38c-11.24 0-20.38 9.15-20.38 20.38c0 4.14-3.36 7.5-7.5 7.5c-4.14 0-7.5-3.36-7.5-7.5c0-19.51 15.87-35.38 35.38-35.38c19.51 0 35.38 15.87 35.38 35.39z" />
	</g>
	<g id="Layer">
	</g>
	<g id="Layer">
	</g>
	<g id="Layer">
	</g>
	<g id="Layer">
	</g>
	<g id="Layer">
	</g>
	<g id="Layer">
	</g>
	<g id="Layer">
	</g>
	<g id="Layer">
	</g>
	<g id="Layer">
	</g>
	<g id="Layer">
	</g>
	<g id="Layer">
	</g>
	<g id="Layer">
	</g>
	<g id="Layer">
	</g>
	<g id="Layer">
	</g>
	<g id="Layer">
	</g>
</svg>