<svg xmlns="http://www.w3.org/2000/svg" width="22.732" height="22.737" viewBox="0 0 22.732 22.737">
  <path id="Layer" d="M9.946,11.5c.011.045.022.089.034.123s.022.078.034.123.022.078.034.123a.545.545,0,0,0,.045.123,6.826,6.826,0,0,0,1.689,2.64,6.826,6.826,0,0,0,2.64,1.689l.1.034.1.034.1.034a.327.327,0,0,0,.1.022l.391-.772a2.328,2.328,0,0,1,.414-.57,2.069,2.069,0,0,1,.57-.414,2.045,2.045,0,0,1,.671-.213,2.479,2.479,0,0,1,.7,0l4.966.828a2.521,2.521,0,0,1,.738.257,2.375,2.375,0,0,1,.6.5,2.2,2.2,0,0,1,.526,1.443v4.888A2.137,2.137,0,0,1,22.6,24.527c-2.505.38-9.91.895-15.76-4.955A18.414,18.414,0,0,1,1.893,3.812,2.137,2.137,0,0,1,4.029,2H9.107a2.2,2.2,0,0,1,.66.1,1.951,1.951,0,0,1,.593.291,2.659,2.659,0,0,1,.492.447,2.251,2.251,0,0,1,.336.57L12.81,7.458a2.42,2.42,0,0,1,.157.738,2.1,2.1,0,0,1-.1.749,2.128,2.128,0,0,1-.347.671,2.446,2.446,0,0,1-.548.526L9.946,11.485h0Zm-1.532,6.5A16.188,16.188,0,0,0,22.16,22.323V17.491l-4.966-.828-.749,1.5a.971.971,0,0,1-.179.257,1.017,1.017,0,0,1-.235.2.89.89,0,0,1-.28.123.942.942,0,0,1-.3.045h-.022a.545.545,0,0,1-.134-.011c-.045,0-.089-.011-.134-.011s-.089-.011-.134-.011-.089-.011-.134-.011a6.752,6.752,0,0,1-1.208-.291,8.97,8.97,0,0,1-3.512-2.226,8.969,8.969,0,0,1-2.226-3.512,6.752,6.752,0,0,1-.291-1.208c-.022-.157-.034-.28-.045-.369v-.157h0a1.1,1.1,0,0,1,.034-.268,1.026,1.026,0,0,1,.1-.257,1.6,1.6,0,0,1,.157-.224,1.636,1.636,0,0,1,.213-.179L10.718,8.32,9.1,4.271H4.074A16.188,16.188,0,0,0,8.4,18.017Z" transform="translate(-1.677 -2)" fill="#fff" fill-rule="evenodd"/>
</svg>
