<svg xmlns="http://www.w3.org/2000/svg" width="128.281" height="112.937" viewBox="0 0 128.281 112.937">
  <g id="complete" transform="translate(-5.256 -8.5)">
    <path id="Path_143" data-name="Path 143" d="M61.711,121.437A56.469,56.469,0,1,1,95.352,19.6a4.806,4.806,0,0,1-5.719,7.713,47.16,47.16,0,1,0,18.334,30.277,4.863,4.863,0,0,1,9.612-1.49,57.312,57.312,0,0,1,.6,8.867A56.517,56.517,0,0,1,61.711,121.437Z" transform="translate(0 0)" fill="#329f5e"/>
    <path id="Path_144" data-name="Path 144" d="M47.231,80.733a4.806,4.806,0,0,1-3.388-1.418L21.015,56.488a4.806,4.806,0,0,1,6.776-6.776l19.44,19.416,57.886-57.862a4.806,4.806,0,0,1,6.776,6.776L50.619,79.315A4.806,4.806,0,0,1,47.231,80.733Z" transform="translate(20.487 2.257)" fill="#329f5e"/>
  </g>
</svg>
