<svg xmlns="http://www.w3.org/2000/svg" width="40.22" height="46.29" viewBox="0 0 40.22 46.29">
  <g id="e-pharmacy" transform="translate(-77 -15.78)">
    <path id="Path_332" data-name="Path 332" d="M354.728,136h-1.856a.87.87,0,0,0,0,1.74h1.856a.87.87,0,0,0,0-1.74Z" transform="translate(-248.688 -120.22)"/>
    <path id="Path_333" data-name="Path 333" d="M104.22,11.245a2.3,2.3,0,0,0-2.468-2.073H73.189a2.3,2.3,0,0,0-2.468,2.073,1.947,1.947,0,0,0,.846,1.56.6.6,0,0,0,.02.06c2.018,5.091,7.243,8.7,13.416,9.472v2.326l-.969-.231c-3.693-.879-7.511-1.787-9.945-2.436a12.065,12.065,0,0,1-6.123-3.77,9.581,9.581,0,0,1-2.39-6.276c0-5.86,5.677-10.628,12.654-10.628a14.464,14.464,0,0,1,6.393,1.455,2.436,2.436,0,0,0-.46,1.411,3.358,3.358,0,0,0,6.616,0A3.082,3.082,0,0,0,87.47,1.411a3.77,3.77,0,0,0-1.708.4A16.2,16.2,0,0,0,78.229,0C70.383,0,64,5.361,64,11.951A10.76,10.76,0,0,0,66.685,19a13.644,13.644,0,0,0,6.926,4.26c2.457.655,6.288,1.567,9.992,2.448l1.4.333V38.808H80.435a1.223,1.223,0,0,0-1.313,1.1v4.5a.733.733,0,0,0,.788.661H95.031a.733.733,0,0,0,.788-.661v-4.5a1.223,1.223,0,0,0-1.313-1.1H89.938v-1.5l.053,0c3.677,0,6.668-2.512,6.668-5.6a5.755,5.755,0,0,0-4.586-5.322c-.633-.163-1.352-.342-2.135-.535V22.338c6.173-.768,11.4-4.381,13.416-9.472a.6.6,0,0,0,.02-.06A1.947,1.947,0,0,0,104.22,11.245ZM89.2,4.189a1.759,1.759,0,0,1-3.465,0,1.339,1.339,0,0,1,.484-1.006.754.754,0,0,0,.195-.146,1.942,1.942,0,0,1,1.054-.3A1.614,1.614,0,0,1,89.2,4.189Zm5.041,39.558H80.7V40.131H94.244Zm-7.666-4.939V26.416l1.785.43V38.808Zm5.034-11.157a4.372,4.372,0,0,1,3.472,4.057c0,2.359-2.285,4.278-5.093,4.278l-.053,0V27.23C90.545,27.38,91.107,27.521,91.612,27.651Zm-3.249-2.183-1.785-.428V22.471q.444.02.893.02c.3,0,.6-.007.893-.02Zm-.893-4.3c-6.168,0-11.663-3.118-14-7.85h18.2a.733.733,0,0,0,.788-.661A.733.733,0,0,0,91.671,12H73.189a.832.832,0,0,1-.893-.75.832.832,0,0,1,.893-.75h28.564a.832.832,0,0,1,.893.75.832.832,0,0,1-.893.75h-1.68a.733.733,0,0,0-.788.661.733.733,0,0,0,.788.661h1.4C99.133,18.05,93.639,21.168,87.47,21.168Z" transform="translate(13 17)" fill="#fff"/>
  </g>
</svg>
