<svg id="emergency" xmlns="http://www.w3.org/2000/svg" width="40.267" height="41.591" viewBox="0 0 40.267 41.591">
  <path id="Path_97" data-name="Path 97" d="M63.338,68.622a1.338,1.338,0,0,1-1.02-.456l-.02-.023L58.008,64.2a4.1,4.1,0,0,1,0-6.154l4.6-4.223a5.046,5.046,0,0,1,6.7,0l1.466,1.346c1.345-1.1,2.767-2.333,4.24-3.686s2.82-2.66,4.013-3.9l-1.465-1.346a4.1,4.1,0,0,1,0-6.154l4.6-4.223a4.928,4.928,0,0,1,3.35-1.274h0a4.927,4.927,0,0,1,3.35,1.274l4.311,3.959a1.848,1.848,0,0,1,.3.357c.323.5.928,1.971-.418,4.89-1.559,3.381-5.23,7.741-10.912,12.959a78.556,78.556,0,0,1-8.636,7.016A1.371,1.371,0,0,1,71.7,64.8a1.127,1.127,0,0,1,.269-1.663,76.061,76.061,0,0,0,8.347-6.787c5.445-5,8.93-9.107,10.358-12.2.788-1.71.643-2.515.581-2.719l-4.223-3.879a2.288,2.288,0,0,0-3.038,0l-4.6,4.223a1.863,1.863,0,0,0,0,2.79L81.712,46.7a1.119,1.119,0,0,1,.067,1.615c-1.42,1.52-3.081,3.154-4.936,4.857S73.211,56.4,71.556,57.7A1.38,1.38,0,0,1,69.8,57.64l-2.322-2.133a2.288,2.288,0,0,0-3.038,0l-4.6,4.223a1.863,1.863,0,0,0,0,2.79l4.311,3.959a2.622,2.622,0,0,1,.207.219,1.125,1.125,0,0,1-.22,1.669A1.361,1.361,0,0,1,63.338,68.622Z" transform="translate(-53.624 -31.44)" fill="#fff"/>
  <path id="Path_98" data-name="Path 98" d="M38.764,20.267h5.274V14.993h6.7v5.274h5.274v6.7H50.738v5.274h-6.7V26.967H38.764Z" transform="translate(-37.397 -13.626)" fill="#fff"/>
  <g id="Group_10" data-name="Group 10">
    <path id="Path_99" data-name="Path 99" d="M37.111,19.983h-6.7a1.367,1.367,0,0,1-1.367-1.367V14.708H25.137a1.367,1.367,0,0,1-1.367-1.367v-6.7a1.367,1.367,0,0,1,1.367-1.367h3.907V1.367A1.367,1.367,0,0,1,30.411,0h6.7a1.367,1.367,0,0,1,1.367,1.367V5.274h3.907a1.367,1.367,0,0,1,1.367,1.367v6.7a1.367,1.367,0,0,1-1.367,1.367H38.479v3.907A1.367,1.367,0,0,1,37.111,19.983Zm-5.332-2.735h3.965V13.341a1.367,1.367,0,0,1,1.367-1.367h3.907V8.009H37.111a1.367,1.367,0,0,1-1.367-1.367V2.735H31.779V6.641a1.367,1.367,0,0,1-1.367,1.367H26.5v3.965h3.907a1.367,1.367,0,0,1,1.367,1.367Z" transform="translate(-23.77)" fill="#fff"/>
    <path id="Path_100" data-name="Path 100" d="M72.44,440.814a1.367,1.367,0,0,1-.967-2.334l4.409-4.409A1.367,1.367,0,0,1,77.816,436l-4.409,4.409A1.363,1.363,0,0,1,72.44,440.814Z" transform="translate(-66.759 -399.223)" fill="#fff"/>
  </g>
</svg>
