<svg version="1.2" baseProfile="tiny-ps" xmlns="http://www.w3.org/2000/svg" viewBox="0 0 60 60" width="60" height="60">
	<title>folder-svg</title>
	<style>
		tspan { white-space:pre }
		.s0 { fill: #ffffff } 
	</style>
	<path id="Layer" fill-rule="evenodd" class="s0" d="m60 29.97v0.18l-10.23 28.04c-0.28 1.03-1.29 1.81-2.45 1.81h-44.76c-0.8 0-1.55-0.37-2.04-1.01c-0.24-0.31-0.39-0.66-0.47-1.03l-0.06 0v-45.23c0-1.51 1.23-2.73 2.73-2.73h1.27v-6h3v-2h3v-2h40v17h1.27c1.51 0 2.73 1.23 2.73 2.73v7.27h3.49c1.45 0 2.51 1.25 2.51 2.97zm-8-10.24c0-0.4-0.33-0.73-0.73-0.73h-1.27v7h-40v-22h-1v28.33l1.28-3.52c0.28-1.03 1.29-1.81 2.45-1.81h39.27v-7.27zm-35-6.73c0 0.55 0.45 1 1 1h24c0.55 0 1-0.45 1-1c0-0.55-0.45-1-1-1h-24c-0.55 0-1 0.45-1 1zm0 7c0 0.55 0.45 1 1 1h24c0.55 0 1-0.45 1-1c0-0.55-0.45-1-1-1h-24c-0.55 0-1 0.45-1 1zm-13 26.04v-34.04h-1.27c-0.4 0-0.73 0.33-0.73 0.73v38.79l2-5.49zm2-5.48l1-2.74v-31.81h-1v34.56zm11-34.56c0 0.55 0.45 1 1 1h10c0.55 0 1-0.45 1-1c0-0.55-0.45-1-1-1h-10c-0.55 0-1 0.45-1 1z" />
	<g id="Layer">
	</g>
	<g id="Layer">
	</g>
	<g id="Layer">
	</g>
	<g id="Layer">
	</g>
	<g id="Layer">
	</g>
	<g id="Layer">
	</g>
	<g id="Layer">
	</g>
	<g id="Layer">
	</g>
	<g id="Layer">
	</g>
	<g id="Layer">
	</g>
	<g id="Layer">
	</g>
	<g id="Layer">
	</g>
	<g id="Layer">
	</g>
	<g id="Layer">
	</g>
	<g id="Layer">
	</g>
</svg>