<svg version="1.2" baseProfile="tiny-ps" xmlns="http://www.w3.org/2000/svg" viewBox="0 0 512 512" width="512" height="512">
	<title>medicine-svg</title>
	<style>
		tspan { white-space:pre }
		.s0 { fill: #ffffff } 
	</style>
	<g id="Layer">
		<g id="Layer">
			<g id="Layer">
				<path id="Layer" class="s0" d="m310.88 430.89c0.03 2.77-0.99 8-8.2 11.84c-1.28 0.67-2.65 1-4 1c-3.05 0-6.01-1.64-7.54-4.52c-1.44-2.72-1.27-5.86 0.18-8.34c-1.32-2.39-1.5-5.36-0.2-7.96c2.1-4.22 7.16-5.98 11.37-3.88c4.01 2.01 8.32 6.18 8.4 11.86z" />
				<path id="Layer" class="s0" d="m285.02 146.24c2.98-3.64 8.35-4.19 12.01-1.21c6.84 5.58 10.17 11.18 10.17 17.1c0 11.73-9.91 21.97-11.03 23.1l-10.86 12.09c-1.69 1.87-4.01 2.82-6.35 2.82c-2.03 0-4.08-0.73-5.71-2.19c-3.5-3.16-3.78-8.55-0.63-12.05l11.18-12.42c2.71-2.77 6.3-7.96 6.34-11.31c0.01 0.22-0.68-1.31-3.9-3.93c-3.64-2.98-4.19-8.35-1.21-12.01z" />
				<path id="Layer" class="s0" d="m207.68 379.58c-1.65 1.54-3.75 2.3-5.84 2.3c-2.27 0-4.55-0.9-6.23-2.7c-11.38-12.16-24.95-31.56-24.95-54.92c0-14.21 5.03-28.55 14.93-42.65c2.71-3.86 8.04-4.78 11.9-2.06c3.85 2.71 4.78 8.03 2.06 11.89c-7.85 11.16-11.83 22.2-11.83 32.83c0 17.79 11.06 33.34 20.34 43.25c3.22 3.44 3.05 8.84-0.39 12.06z" />
				<path id="Layer" class="s0" d="m127.57 202.1c1.49 4.47-0.93 9.3-5.4 10.79c-9.92 3.3-21 6.2-31.95 6.2c-13.36 0-26.51-4.32-37.13-17.49c-0.21-0.26-0.41-0.54-0.59-0.83l-42.67-68.27c-6.35-11.24-9.83-18-9.83-30.12c0-11.09 9.08-20.99 23.13-25.24c0.32-0.08 0.62-0.16 0.94-0.22l187.73-34.13c4.65-0.83 9.08 2.24 9.92 6.87c0.84 4.63-2.24 9.08-6.87 9.92l-187.23 34.04c-6.05 1.94-10.56 5.66-10.56 8.76c0 7.83 1.91 11.61 7.43 21.41l2.13 3.39l65.72-11.86c4.68-0.85 9.08 2.24 9.92 6.88c0.84 4.64-2.24 9.08-6.88 9.92l-59.02 10.65l11.86 18.98l44.94-3.73c4.71-0.4 8.82 3.11 9.22 7.8c0.38 4.69-3.11 8.82-7.8 9.21l-36.17 3l8.28 13.25c10.19 12.3 24.76 13.87 50.09 5.41c4.49-1.5 9.3 0.94 10.8 5.4z" />
				<path id="Layer" class="s0" d="m375.47 162.13c0 46.23-45.44 83.11-47.37 84.66c-1.57 1.25-3.46 1.87-5.32 1.87c-2.5 0-4.98-1.09-6.67-3.2c-2.94-3.67-2.35-9.04 1.32-11.99c0.41-0.33 40.97-33.37 40.97-71.34c0-39.62-23.85-62.12-37.95-69.16c-3.43-1.72-11.69-3.78-22.43-4.51c-4.7-0.32-8.25-4.39-7.93-9.1c0.32-4.7 4.5-8.18 9.1-7.93c12.04 0.82 22.57 3.11 28.88 6.26c17.6 8.81 47.39 36.49 47.39 84.44z" />
				<path id="Layer" class="s0" d="m512 102.4c0 12.13-3.48 18.88-9.63 29.79l-42.86 68.6c-0.18 0.29-0.38 0.57-0.59 0.83c-10.62 13.17-23.77 17.49-37.13 17.49c-10.95 0-22.03-2.9-31.95-6.2c-4.47-1.49-6.89-6.32-5.4-10.79c1.49-4.46 6.31-6.9 10.8-5.4c25.35 8.46 39.91 6.89 50.09-5.41l8.28-13.26l-36.17-3c-4.69-0.38-8.18-4.51-7.8-9.21c0.39-4.69 4.52-8.2 9.22-7.8l44.94 3.73l11.85-18.98l-59.02-10.65c-4.63-0.84-7.71-5.27-6.88-9.92c0.84-4.63 5.26-7.73 9.92-6.88l65.72 11.86l2.33-3.72c5.32-9.46 7.24-13.24 7.24-21.08c0-3.11-4.51-6.83-10.56-8.76l-187.23-34.04c-4.63-0.84-7.71-5.29-6.87-9.92c0.84-4.63 5.26-7.69 9.92-6.87l187.73 34.13c0.32 0.06 0.62 0.14 0.94 0.22c14.06 4.25 23.13 14.15 23.13 25.24z" />
				<path id="Layer" class="s0" d="m239.68 321.1c-0.49 1.22-0.75 2.31-0.75 3.17c0 0.89 0.31 2.87 2.33 6.14c2.47 4.01 1.23 9.27-2.78 11.75c-1.39 0.86-2.94 1.27-4.47 1.27c-2.87 0-5.66-1.44-7.27-4.05c-3.23-5.24-4.87-10.32-4.87-15.11c0-3.08 0.67-6.31 2.01-9.59c1.78-4.36 6.75-6.47 11.12-4.69c4.36 1.77 6.46 6.75 4.68 11.11z" />
				<path id="Layer" class="s0" d="m222.08 110.93c0-4.71 3.78-8.53 8.49-8.53h0.09c4.72 0 8.53 3.82 8.53 8.53c0 4.71-3.81 8.53-8.53 8.53c-4.71 0-8.58-3.82-8.58-8.53z" />
				<path id="Layer" fill-rule="evenodd" class="s0" d="m313.23 258.5c1.15 1.14 28.1 28.53 28.1 65.77c0 33.28-27.48 56.75-28.64 57.74l-52.24 52.27l26.27 19.69c8.98 7.72 20.63 23.84 10.21 37.58c-2.55 3.37-7.38 7.39-15.86 7.39c-5.1 0-10.71-1.51-16.54-3.74v8.26c0 4.71-3.82 8.53-8.53 8.53c-4.71 0-8.53-3.82-8.53-8.53v-16.06c-0.72-0.36-1.43-0.72-2.15-1.07l-1.66-0.83c-17.31-8.66-38.85-19.43-38.85-50.3c0-28.8 18.77-47.9 19.57-48.7l23.1-27.75v-61.11l-65.07-52.04c-1.87-1.5-45.87-37.23-45.87-83.47c0-47.95 29.78-75.63 47.39-84.44c8.04-4.01 22.89-6.61 37.86-6.61c9.6 0 18.19 0.99 25.69 2.87v-24.34c-9.92-3.53-17.07-12.91-17.07-24.02c0-14.11 11.49-25.6 25.6-25.6c14.11 0 25.6 11.49 25.6 25.6c0 11.11-7.15 20.49-17.07 24.03v31.31c11.01 6.86 17.07 17.06 17.07 30c0 15.74-7.72 24.26-17.07 29.64v69.22l48.7 48.7zm-65.77-232.9c0 4.7 3.83 8.53 8.53 8.53c4.7 0 8.53-3.83 8.53-8.53c0-4.7-3.83-8.53-8.53-8.53c-4.7 0-8.53 3.83-8.53 8.53zm76.8 298.67c0-30.25-22.87-53.47-23.1-53.7l-50.66-50.65c-0.33-0.29-0.62-0.58-0.91-0.91l-33.77-33.77c-1.13-1.13-11.03-11.37-11.03-23.1c0-12.81 16.67-22.14 21.79-24.7c4.8-2.4 9.98-4.12 14.98-5.79c16.32-5.44 22.96-8.83 22.96-20.7c0-21.14-32.72-22.78-42.75-22.78c-13.53 0-25.45 2.42-30.23 4.81c-14.1 7.04-37.95 29.54-37.95 69.16c0 37.97 39.08 69.83 39.47 70.14l85.33 68.26c0.24 0.2 0.48 0.41 0.7 0.63c1.13 1.13 11.03 11.37 11.03 23.1c0 11.73-9.91 21.97-11.03 23.1l-42.15 50.63c-0.64 0.7-15.09 15.65-15.09 37.2c0 19.34 11.18 25.92 29.41 35.03l1.68 0.85c10.11 5.06 21.56 10.8 28.11 10.8c1.78 0 2.11-0.43 2.26-0.63c2.47-3.26-4.22-11.32-7.31-13.99l-33.68-25.23c-1.98-1.49-3.22-3.75-3.4-6.22c-0.17-2.47 0.73-4.89 2.48-6.64l59.73-59.73c0.75-0.68 23.1-19.94 23.1-45.17zm-57.76 11.6c2.94-3.03 6.55-8.26 6.55-11.61c0-3.21-3.34-8.16-5.76-10.74l-2.77-2.23v26.96l1.98-2.38zm-19.55-188.04c-4.64 1.54-9.02 3-12.75 4.87c-5.59 2.82-11.73 7.68-12.39 9.81c0.04 2.97 3.66 8.2 6.1 10.68l19.54 19.54v-45.07c-0.16 0.05-0.34 0.11-0.5 0.17z" />
			</g>
		</g>
	</g>
	<g id="Layer">
	</g>
	<g id="Layer">
	</g>
	<g id="Layer">
	</g>
	<g id="Layer">
	</g>
	<g id="Layer">
	</g>
	<g id="Layer">
	</g>
	<g id="Layer">
	</g>
	<g id="Layer">
	</g>
	<g id="Layer">
	</g>
	<g id="Layer">
	</g>
	<g id="Layer">
	</g>
	<g id="Layer">
	</g>
	<g id="Layer">
	</g>
	<g id="Layer">
	</g>
	<g id="Layer">
	</g>
</svg>