<svg xmlns="http://www.w3.org/2000/svg" width="131.829" height="169.901" viewBox="0 0 131.829 169.901">
  <g id="Group_37" data-name="Group 37" transform="translate(-250.423 -146.782)">
    <path id="Path_232" data-name="Path 232" d="M495,635.513H614.328V490.776c0-7.664-7.549-13.9-16.828-13.9H511.827c-9.279,0-16.828,6.235-16.828,13.9Z" transform="translate(-238.326 -318.831)" fill="#e6e6e6"/>
    <path id="Path_233" data-name="Path 233" d="M511,643.347H612.145V520.665c0-6.5-6.4-11.781-14.263-11.781H525.264c-7.865,0-14.264,5.285-14.264,11.781Z" transform="translate(-245.235 -332.65)" fill="#fff"/>
    <path id="Path_234" data-name="Path 234" d="M489.35,457.053c-2.949,0-5.349,1.982-5.349,4.418v12.753c0,2.436,2.4,4.418,5.349,4.418H610.481c2.949,0,5.349-1.982,5.349-4.418V461.471c0-2.436-2.4-4.418-5.349-4.418Z" transform="translate(-233.577 -310.271)" fill="#3f3d56"/>
    <path id="Path_235" data-name="Path 235" d="M533.21,717.836a5.241,5.241,0,0,0-5.226,5.226h0a5.241,5.241,0,0,0,5.226,5.226h9.781V717.836Z" transform="translate(-252.568 -422.87)" fill="#3f3d56"/>
    <path id="Path_236" data-name="Path 236" d="M562.965,717.836h-9.513v10.451h9.514a5.241,5.241,0,0,0,5.226-5.226h0a5.241,5.241,0,0,0-5.226-5.226Z" transform="translate(-263.564 -422.87)" fill="#fff"/>
    <path id="Path_237" data-name="Path 237" d="M566.376,720.088a5.2,5.2,0,0,1,1.28,3.41h0a5.241,5.241,0,0,1-5.226,5.226h-8.978v.536h9.514a5.241,5.241,0,0,0,5.226-5.226h0A5.215,5.215,0,0,0,566.376,720.088Z" transform="translate(-263.564 -423.842)" opacity="0.2"/>
    <path id="Path_238" data-name="Path 238" d="M608.005,578.068a5.241,5.241,0,0,0-7.387-.218h0a5.241,5.241,0,0,0-.218,7.387l6.71,7.118,7.605-7.169Z" transform="translate(-283.223 -361.816)" fill="#3f3d56"/>
    <path id="Path_239" data-name="Path 239" d="M626.769,598.072l-6.526-6.923-7.606,7.169,6.526,6.923a5.241,5.241,0,0,0,7.387.218h0a5.241,5.241,0,0,0,.218-7.387Z" transform="translate(-289.119 -368.17)" fill="#fff"/>
    <path id="Path_240" data-name="Path 240" d="M628.177,606.6a5.2,5.2,0,0,1-1.6,3.27h0a5.241,5.241,0,0,1-7.387-.218l-6.158-6.533-.39.368,6.526,6.923a5.241,5.241,0,0,0,7.387.218h0A5.214,5.214,0,0,0,628.177,606.6Z" transform="translate(-289.119 -373.338)" opacity="0.2"/>
    <path id="Path_241" data-name="Path 241" d="M559.006,607.068a5.241,5.241,0,0,0-7.387-.218h0a5.241,5.241,0,0,0-.218,7.387l6.709,7.118,7.605-7.169Z" transform="translate(-262.067 -374.338)" fill="#3f3d56"/>
    <path id="Path_242" data-name="Path 242" d="M577.769,627.072l-6.526-6.923-7.606,7.169,6.526,6.923a5.241,5.241,0,0,0,7.387.218h0A5.241,5.241,0,0,0,577.769,627.072Z" transform="translate(-267.962 -380.692)" fill="#fff"/>
    <path id="Path_243" data-name="Path 243" d="M579.177,635.6a5.2,5.2,0,0,1-1.6,3.27h0a5.241,5.241,0,0,1-7.387-.218l-6.158-6.533-.39.368,6.526,6.923a5.241,5.241,0,0,0,7.387.218h0A5.214,5.214,0,0,0,579.177,635.6Z" transform="translate(-267.962 -385.86)" opacity="0.2"/>
    <path id="Path_244" data-name="Path 244" d="M608.006,634.068a5.241,5.241,0,0,0-7.387-.218h0a5.241,5.241,0,0,0-.218,7.387l6.71,7.118,7.605-7.169Z" transform="translate(-283.223 -385.995)" fill="#3f3d56"/>
    <path id="Path_245" data-name="Path 245" d="M626.769,654.072l-6.526-6.923-7.606,7.169,6.526,6.923a5.241,5.241,0,0,0,7.387.218h0A5.241,5.241,0,0,0,626.769,654.072Z" transform="translate(-289.119 -392.349)" fill="#fff"/>
    <path id="Path_246" data-name="Path 246" d="M628.177,662.6a5.2,5.2,0,0,1-1.6,3.27h0a5.241,5.241,0,0,1-7.387-.218l-6.158-6.533-.39.368,6.526,6.923a5.241,5.241,0,0,0,7.387.218h0a5.215,5.215,0,0,0,1.626-4.028Z" transform="translate(-289.119 -397.518)" opacity="0.2"/>
    <path id="Path_247" data-name="Path 247" d="M633.891,685.955a5.241,5.241,0,0,0,.128-7.389h0a5.241,5.241,0,0,0-7.389-.128l-7.036,6.8,7.261,7.518Z" transform="translate(-292.122 -405.228)" fill="#3f3d56"/>
    <path id="Path_248" data-name="Path 248" d="M614.283,704.978l6.843-6.609-7.261-7.517-6.843,6.609a5.241,5.241,0,0,0-.128,7.389h0A5.241,5.241,0,0,0,614.283,704.978Z" transform="translate(-286.008 -411.219)" fill="#fff"/>
    <path id="Path_249" data-name="Path 249" d="M610.942,706.426a5.2,5.2,0,0,1-3.29-1.564h0a5.241,5.241,0,0,1,.128-7.389l6.458-6.237-.372-.385-6.843,6.609a5.241,5.241,0,0,0-.128,7.389h0A5.214,5.214,0,0,0,610.942,706.426Z" transform="translate(-286.008 -411.218)" opacity="0.2"/>
    <path id="Path_250" data-name="Path 250" d="M567.891,656.955a5.241,5.241,0,0,0,.128-7.389h0a5.241,5.241,0,0,0-7.389-.128l-7.036,6.8,7.261,7.518Z" transform="translate(-263.626 -392.707)" fill="#3f3d56"/>
    <path id="Path_251" data-name="Path 251" d="M548.284,675.978l6.843-6.609-7.261-7.517-6.843,6.609a5.241,5.241,0,0,0-.128,7.389h0a5.241,5.241,0,0,0,7.389.128Z" transform="translate(-257.512 -398.697)" fill="#fff"/>
    <path id="Path_252" data-name="Path 252" d="M544.942,677.426a5.2,5.2,0,0,1-3.29-1.564h0a5.241,5.241,0,0,1,.128-7.389l6.457-6.237-.372-.385-6.843,6.609a5.241,5.241,0,0,0-.128,7.389h0A5.215,5.215,0,0,0,544.942,677.426Z" transform="translate(-257.512 -398.697)" opacity="0.2"/>
    <path id="Path_253" data-name="Path 253" d="M661.891,621.955a5.241,5.241,0,0,0,.128-7.389h0a5.241,5.241,0,0,0-7.389-.128l-7.036,6.8,7.261,7.518Z" transform="translate(-304.212 -377.595)" fill="#3f3d56"/>
    <path id="Path_254" data-name="Path 254" d="M642.283,640.978l6.843-6.609-7.261-7.517-6.843,6.609a5.242,5.242,0,0,0-.128,7.389h0A5.241,5.241,0,0,0,642.283,640.978Z" transform="translate(-298.098 -383.585)" fill="#fff"/>
    <path id="Path_255" data-name="Path 255" d="M638.942,642.426a5.2,5.2,0,0,1-3.29-1.564h0a5.241,5.241,0,0,1,.128-7.389l6.457-6.237-.372-.385-6.843,6.609a5.241,5.241,0,0,0-.128,7.389h0A5.215,5.215,0,0,0,638.942,642.426Z" transform="translate(-298.098 -383.585)" opacity="0.2"/>
    <path id="Path_256" data-name="Path 256" d="M645.005,700.068a5.241,5.241,0,0,0-7.387-.218h0a5.241,5.241,0,0,0-.218,7.387l6.71,7.118,7.605-7.169Z" transform="translate(-299.199 -414.492)" fill="#3f3d56"/>
    <path id="Path_257" data-name="Path 257" d="M663.769,720.072l-6.526-6.923-7.606,7.169,6.526,6.923a5.241,5.241,0,0,0,7.387.218h0A5.241,5.241,0,0,0,663.769,720.072Z" transform="translate(-305.095 -420.846)" fill="#fff"/>
    <path id="Path_258" data-name="Path 258" d="M665.177,728.6a5.2,5.2,0,0,1-1.6,3.27h0a5.241,5.241,0,0,1-7.387-.218l-6.158-6.533-.39.368,6.526,6.923a5.241,5.241,0,0,0,7.387.218h0a5.215,5.215,0,0,0,1.626-4.028Z" transform="translate(-305.095 -426.015)" opacity="0.2"/>
    <path id="Path_259" data-name="Path 259" d="M580.006,699.068a5.241,5.241,0,0,0-7.387-.218h0a5.241,5.241,0,0,0-.218,7.387l6.71,7.118,7.605-7.169Z" transform="translate(-271.134 -414.06)" fill="#3f3d56"/>
    <path id="Path_260" data-name="Path 260" d="M598.769,719.072l-6.526-6.923-7.606,7.169,6.526,6.923a5.241,5.241,0,0,0,7.387.218h0A5.241,5.241,0,0,0,598.769,719.072Z" transform="translate(-277.03 -420.414)" fill="#fff"/>
    <path id="Path_261" data-name="Path 261" d="M600.177,727.6a5.2,5.2,0,0,1-1.6,3.27h0a5.241,5.241,0,0,1-7.387-.218l-6.158-6.533-.39.368,6.526,6.923a5.241,5.241,0,0,0,7.387.218h0A5.214,5.214,0,0,0,600.177,727.6Z" transform="translate(-277.029 -425.583)" opacity="0.2"/>
    <path id="Path_262" data-name="Path 262" d="M593.7,661.589a7.537,7.537,0,1,1-6.03-7.386A7.537,7.537,0,0,1,593.7,661.589Z" transform="translate(-274.436 -395.33)" fill="#fff"/>
    <path id="Path_263" data-name="Path 263" d="M592.256,654.2v14.772a7.614,7.614,0,0,1-3.015,0V654.2a7.618,7.618,0,0,1,3.015,0Z" transform="translate(-279.017 -395.33)" opacity="0.2"/>
    <path id="Path_264" data-name="Path 264" d="M599.7,608.59a7.537,7.537,0,1,1-9.044-7.386,7.613,7.613,0,0,1,3.015,0A7.537,7.537,0,0,1,599.7,608.59Z" transform="translate(-277.027 -372.446)" fill="#fff"/>
    <path id="Path_265" data-name="Path 265" d="M598.256,601.2v14.772a7.609,7.609,0,0,1-3.015,0V601.2A7.613,7.613,0,0,1,598.256,601.2Z" transform="translate(-281.608 -372.446)" opacity="0.2"/>
    <path id="Path_266" data-name="Path 266" d="M599.7,684.59a7.537,7.537,0,1,1-6.03-7.386A7.537,7.537,0,0,1,599.7,684.59Z" transform="translate(-277.027 -405.261)" fill="#fff"/>
    <path id="Path_267" data-name="Path 267" d="M598.256,677.2v14.772a7.611,7.611,0,0,1-3.015,0V677.2A7.613,7.613,0,0,1,598.256,677.2Z" transform="translate(-281.608 -405.261)" opacity="0.2"/>
    <path id="Path_268" data-name="Path 268" d="M632.7,721.59a7.537,7.537,0,1,1-9.044-7.386,7.623,7.623,0,0,1,3.015,0A7.537,7.537,0,0,1,632.7,721.59Z" transform="translate(-291.275 -421.237)" fill="#fff"/>
    <path id="Path_269" data-name="Path 269" d="M631.256,714.2v14.772a7.613,7.613,0,0,1-3.015,0V714.2A7.609,7.609,0,0,1,631.256,714.2Z" transform="translate(-295.856 -421.237)" opacity="0.2"/>
    <path id="Path_270" data-name="Path 270" d="M663.609,657.636a7.536,7.536,0,0,1,1.134,9.467,7.616,7.616,0,0,1-2.092,2.17,7.538,7.538,0,1,1,.958-11.637Z" transform="translate(-305.614 -395.966)" fill="#fff"/>
    <path id="Path_271" data-name="Path 271" d="M655,657.86l10.635,10.251a7.611,7.611,0,0,1-2.092,2.17l-10.636-10.251A7.612,7.612,0,0,1,655,657.86Z" transform="translate(-306.506 -396.974)" opacity="0.2"/>
    <path id="Path_272" data-name="Path 272" d="M667.609,686.636a7.536,7.536,0,1,1-9.5-.785A7.537,7.537,0,0,1,667.609,686.636Z" transform="translate(-307.341 -408.487)" fill="#fff"/>
    <path id="Path_273" data-name="Path 273" d="M659,686.86l10.635,10.251a7.611,7.611,0,0,1-2.092,2.17l-10.635-10.251A7.614,7.614,0,0,1,659,686.86Z" transform="translate(-308.233 -409.495)" opacity="0.2"/>
    <path id="Path_274" data-name="Path 274" d="M548.609,693.636a7.537,7.537,0,1,1-9.5-.784A7.536,7.536,0,0,1,548.609,693.636Z" transform="translate(-255.96 -411.509)" fill="#fff"/>
    <path id="Path_275" data-name="Path 275" d="M540,693.86l10.635,10.251a7.61,7.61,0,0,1-2.092,2.171l-10.635-10.251A7.612,7.612,0,0,1,540,693.86Z" transform="translate(-256.852 -412.518)" opacity="0.2"/>
    <rect id="Rectangle_32" data-name="Rectangle 32" width="2.841" height="21.024" transform="translate(265.481 146.782)" opacity="0.2"/>
    <rect id="Rectangle_33" data-name="Rectangle 33" width="2.841" height="21.024" transform="translate(281.96 146.782)" opacity="0.2"/>
    <rect id="Rectangle_34" data-name="Rectangle 34" width="2.841" height="21.024" transform="translate(298.439 146.782)" opacity="0.2"/>
    <rect id="Rectangle_35" data-name="Rectangle 35" width="2.841" height="21.024" transform="translate(314.917 146.782)" opacity="0.2"/>
    <rect id="Rectangle_36" data-name="Rectangle 36" width="2.841" height="21.024" transform="translate(331.396 146.782)" opacity="0.2"/>
    <rect id="Rectangle_37" data-name="Rectangle 37" width="2.841" height="21.024" transform="translate(347.874 146.782)" opacity="0.2"/>
    <rect id="Rectangle_38" data-name="Rectangle 38" width="2.841" height="21.024" transform="translate(364.353 146.782)" opacity="0.2"/>
  </g>
</svg>
