<svg xmlns="http://www.w3.org/2000/svg" width="303.304" height="173.555" viewBox="0 0 303.304 173.555">
  <g id="Group_53" data-name="Group 53" transform="translate(-96 -82.535)">
    <path id="Path_14" data-name="Path 14" d="M.2,2.48l-.2-.2.283-.286L1.977,0l.215.186-1.7,2Z" transform="translate(288.631 83.796) rotate(8)" fill="#fff"/>
    <path id="Path_81" data-name="Path 81" d="M.009,0H.294L.285,2.221H0Z" transform="translate(270.567 82.731) rotate(-42)" fill="#fff"/>
    <g id="video-call" transform="translate(96 82.968)">
      <path id="Path_290" data-name="Path 290" d="M591.417,107.248H530.65a12.918,12.918,0,0,0-12.6,10.077l-30.7,136.19a10.44,10.44,0,0,0,9.671,12.724l62.468,3.078A13.793,13.793,0,0,0,573.735,258l17.417-96.288,1.3.37,3.333-18.25-1.334-.333,4.862-26.878a7.954,7.954,0,0,0-7.892-9.369Z" transform="translate(-363.952 -107.248)" fill="#3f3d56"/>
      <path id="Path_291" data-name="Path 291" d="M556.843,118.874H549.75a8.927,8.927,0,0,0-8.722,7.024L511.556,260.977a5.532,5.532,0,0,0,5.043,6.7l62.266,4.081a7.164,7.164,0,0,0,7.519-5.879l25.149-139.617a6.275,6.275,0,0,0-6.175-7.387h-6.729a2.961,2.961,0,0,0-2.859,2.191h0A2.614,2.614,0,0,1,593.244,123H561.3a4.469,4.469,0,0,1-4.456-4.126Z" transform="translate(-382.145 -115.938)" fill="#fff"/>
      <path id="Path_292" data-name="Path 292" d="M1026.422,520.967c-9.717,15.354-6.734,34.673-6.734,34.673s18.736-5.574,28.453-20.928,6.734-34.673,6.734-34.673S1036.14,505.614,1026.422,520.967Z" transform="translate(-761.723 -400.841)" fill="#d0cde1"/>
      <path id="Path_293" data-name="Path 293" d="M1001.211,494.705c-.537,18.162-13.819,32.505-13.819,32.505s-12.41-15.1-11.873-33.266,13.817-32.505,13.817-32.505S1001.746,476.543,1001.211,494.705Z" transform="translate(-729.019 -371.99)" fill="#fff"/>
      <ellipse id="Ellipse_17" data-name="Ellipse 17" cx="5.556" cy="3.782" rx="5.556" ry="3.782" transform="translate(23.728 92.245)" fill="#fff"/>
      <path id="Path_294" data-name="Path 294" d="M115.461,487.481s26.391,45.854,25.7,52.472" transform="translate(-86.178 -391.454)" fill="#fff"/>
      <path id="Path_295" data-name="Path 295" d="M74.062,500.006V526.83c-5.528-7.66-16.554-15.547-37.216-21.95L74.062,556v.388s.07-.038.2-.112l.063.087s.053-.071.148-.208C78.811,553.643,115.176,531,74.062,500.006Z" transform="translate(-27.416 -400.816)" fill="#3f3d56"/>
      <ellipse id="Ellipse_18" data-name="Ellipse 18" cx="5.556" cy="3.782" rx="5.556" ry="3.782" transform="translate(226.27 92.245)" fill="#fff"/>
      <path id="Path_296" data-name="Path 296" d="M917.461,487.481s26.391,45.854,25.7,52.472" transform="translate(-685.635 -391.454)" fill="#fff"/>
      <path id="Path_297" data-name="Path 297" d="M876.062,500.006V526.83c-5.528-7.66-16.554-15.547-37.216-21.95L876.062,556v.388s.07-.038.2-.112l.063.087s.053-.071.148-.208C880.81,553.643,917.177,531,876.062,500.006Z" transform="translate(-626.874 -400.816)" fill="#3f3d56"/>
      <path id="Path_298" data-name="Path 298" d="M39.55,657.164c2.917,5.409,9.108,7.732,9.108,7.732s1.461-6.448-1.455-11.858-9.108-7.732-9.108-7.732S36.633,651.754,39.55,657.164Z" transform="translate(-28.076 -509.421)" fill="#d0cde1"/>
      <path id="Path_299" data-name="Path 299" d="M18.026,678.648c5.266,3.168,7.294,9.461,7.294,9.461s-6.51,1.156-11.776-2.012-7.294-9.461-7.294-9.461S12.76,675.479,18.026,678.648Z" transform="translate(-4.547 -532.685)" fill="#fff"/>
      <path id="Path_300" data-name="Path 300" d="M729.55,657.164c2.917,5.409,9.108,7.732,9.108,7.732s1.462-6.448-1.455-11.858-9.107-7.732-9.107-7.732S726.633,651.754,729.55,657.164Z" transform="translate(-543.819 -509.421)" fill="#3f3d56"/>
      <path id="Path_301" data-name="Path 301" d="M708.026,678.648c5.266,3.168,7.294,9.462,7.294,9.462s-6.51,1.156-11.776-2.012-7.294-9.461-7.294-9.461S702.76,675.479,708.026,678.648Z" transform="translate(-520.29 -532.685)" fill="#3f3d56"/>
      <path id="Path_302" data-name="Path 302" d="M447.55,641.164c2.917,5.409,9.107,7.732,9.107,7.732s1.462-6.448-1.455-11.858-9.108-7.732-9.108-7.732S444.633,635.754,447.55,641.164Z" transform="translate(-333.037 -497.462)" fill="#3f3d56"/>
      <path id="Path_303" data-name="Path 303" d="M426.026,662.648c5.266,3.168,7.294,9.462,7.294,9.462s-6.51,1.156-11.776-2.012-7.294-9.461-7.294-9.461S420.76,659.479,426.026,662.648Z" transform="translate(-309.508 -520.726)" fill="#fff"/>
      <path id="Path_304" data-name="Path 304" d="M322.55,641.164c2.917,5.409,9.108,7.732,9.108,7.732s1.461-6.448-1.455-11.858-9.108-7.732-9.108-7.732S319.633,635.754,322.55,641.164Z" transform="translate(-239.605 -497.462)" fill="#d0cde1"/>
      <path id="Path_305" data-name="Path 305" d="M301.026,662.648c5.266,3.168,7.294,9.462,7.294,9.462s-6.51,1.156-11.776-2.012-7.294-9.461-7.294-9.461S295.76,659.479,301.026,662.648Z" transform="translate(-216.077 -520.726)" fill="#fff"/>
      <path id="Path_306" data-name="Path 306" d="M1126.9,657.164c-2.917,5.409-9.108,7.732-9.108,7.732s-1.461-6.448,1.455-11.858,9.108-7.732,9.108-7.732S1129.818,651.754,1126.9,657.164Z" transform="translate(-835.101 -509.421)" fill="#3f3d56"/>
      <path id="Path_307" data-name="Path 307" d="M1125.411,678.648c-5.266,3.168-7.294,9.461-7.294,9.461s6.51,1.156,11.776-2.012,7.294-9.461,7.294-9.461S1130.677,675.479,1125.411,678.648Z" transform="translate(-835.616 -532.685)" fill="#fff"/>
      <path id="Path_308" data-name="Path 308" d="M302.812,523.48s-7.264-2.152-21.712-4.221l.26-4.42c2.175-24.894-14.868-61.98-14.868-61.98a166.413,166.413,0,0,1,9.619,57.5c-2.26-3.831-6.585-7.94-14.83-10.393,0,0,10.8,9.026,13.975,18.517a413.515,413.515,0,0,0-42.319-2.875l3.567-8.494-6.956,7.133s-3.166-21.1-9.392-21.848l4.818,20.662s-5.439-4.076-6.677-3.646l3.142,6.092q-2.9.006-5.9.045c1.491-24.863-14.963-60.671-14.963-60.671a166.411,166.411,0,0,1,9.619,57.5c-2.26-3.831-6.585-7.94-14.83-10.393,0,0,7.423,6.206,11.771,13.738-10.933.3-22.8.94-35.587,2.017q-2.227-.065-4.528-.112l1.669-3.975.646-1.252a.571.571,0,0,0-.11-.024l1.362-3.243-4.424,4.536c-.994.6-1.991,1.289-2.667,1.768-.072-.425-.173-1-.3-1.685l4.283-18.369c-2.759.333-4.917,4.662-6.465,9.38-1.564-5.077-3.825-9.991-6.772-10.346l4.489,19.249c-.073.363-.14.706-.2,1.025-1.379-.994-5.05-3.54-6.106-3.268L151.13,510.1l3.121,7.432q-2.246.01-4.55.039l-.764-.085,2.253-5.365-4.948,5.074q-1.209-.129-2.408-.252c-1.03-5.5-4.044-18.94-8.992-19.536l4.45,19.084q-1.1-.107-2.2-.209c-1.589-1.034-3.448-2.089-4.109-1.859l.8,1.558c-19.813-1.755-37.452-2.459-52.905-2.493l3.142-6.092c-1.238-.43-6.677,3.646-6.677,3.646l4.818-20.662c-3.872.467-6.56,8.8-8.039,15.038-1.391-3.233-3.124-5.741-5.2-5.991l2.714,11.641-5.825-5.973,3.567,8.494a413.462,413.462,0,0,0-42.319,2.875c3.178-9.491,13.975-18.517,13.975-18.517-8.245,2.452-12.57,6.562-14.83,10.393a166.412,166.412,0,0,1,9.619-57.5s-17.043,37.086-14.868,61.98l.26,4.42C6.773,519.307-.491,521.459-.491,521.459l70.607.885.625,1.213q-13.93,1.849-29.015,4.39L236.9,525.5s-1.524-.451-4.553-1.137Z" transform="translate(0.491 -364.065)" fill="#3f3d56"/>
      <path id="Path_309" data-name="Path 309" d="M220.742,783.784s46.469-6.819,75.259,0" transform="translate(-164.87 -610.662)" fill="#3f3d56"/>
      <path id="Path_310" data-name="Path 310" d="M924.742,760.5s27.523-6.98,44.574,0" transform="translate(-691.078 -593.203)" fill="#3f3d56"/>
      <path id="Path_311" data-name="Path 311" d="M606.6,283.186q-.18,0-.362-.012l-4.307-.283-42.2-2.765a4.391,4.391,0,0,1-4-5.309l22.015-100.9a6.958,6.958,0,0,1,6.76-5.444h41.537a4.94,4.94,0,0,1,4.86,5.815L612.117,278.576a5.619,5.619,0,0,1-1.216,2.6l-.052.126h-.055a5.63,5.63,0,0,1-1.631,1.265l-.031.014A5.616,5.616,0,0,1,606.6,283.186Zm-22.092-114.2a6.45,6.45,0,0,0-6.266,5.047l-22.015,100.9a3.875,3.875,0,0,0,3.536,4.7l46.508,3.048a5.1,5.1,0,0,0,2.632-.536l.029-.013a5.118,5.118,0,0,0,1.476-1.14l.082-.1a5.109,5.109,0,0,0,1.133-2.4L630.4,174.2l.249.045-.249-.045a4.435,4.435,0,0,0-4.363-5.221Z" transform="translate(-415.183 -153.013)" fill="#3f3d56"/>
      <path id="Path_318" data-name="Path 318" d="M743,412.286h2.025s1.266-1.012,1.012,6.328.759,46.065.759,46.065l-7.34-.506-1.772-41.762Z" transform="translate(-551.258 -335.214)" fill="#fff"/>
      <path id="Path_322" data-name="Path 322" d="M417.688,758.893s3.576,3.011,5.458,2.823,5.458-.188,3.952,1.882-7.716,3.2-10.351,3.388-8.469.377-8.093-.753.753-6.4,2.258-6.775A59.914,59.914,0,0,1,417.688,758.893Z" transform="translate(-305.313 -594.322)" fill="#575a89"/>
      <path id="Path_323" data-name="Path 323" d="M331.46,743.405s2.635,3.861,4.5,4.186,5.308,1.286,3.3,2.875-8.292,1.008-10.881.481-8.259-1.914-7.593-2.9,2.445-5.961,4-5.919A59.912,59.912,0,0,1,331.46,743.405Z" transform="translate(-239.608 -581.791)" fill="#575a89"/>
      <path id="Path_324" data-name="Path 324" d="M360.336,518.03s2.422,16.588,1.858,19.6-.941,7.716-.941,7.716a28.456,28.456,0,0,1,0,5.834c-.376,1.882-2.635,19.761-2.635,20.138a5.217,5.217,0,0,1,0,2.447c-.376.941-1.129.188,0,1.694s.376,1.882.188,1.882-7.528.753-7.9,0,.188-.941,0-1.882-.376-1.129-.753-1.317-1.129.188-.565-.753,1.882-2.07,1.506-2.635.188-4.7.188-4.7.376-9.222.565-14.868a38.941,38.941,0,0,0-1.694-11.48,21.533,21.533,0,0,1-4.893,12.609c-4.893,5.834-7.34,16.75-7.34,16.75a4.05,4.05,0,0,0-.565,3.2c.565,1.506,2.258.565.565,1.506s-7.528-.376-8.093-.941.753-1.317.376-2.823-1.882-1.129-.565-1.882,1.694-.565,1.694-1.317,3.388-17.126,8.657-21.831l.376-17.126s-4.7-12.045.188-13.174S360.336,518.03,360.336,518.03Z" transform="translate(-245.866 -411.64)" fill="#2f2e41"/>
      <path id="Path_325" data-name="Path 325" d="M404.725,341.041s-3.2,7.9-2.447,9.034-9.222-3.764-9.222-3.764,3.2-7.9,3.2-8.845S404.725,341.041,404.725,341.041Z" transform="translate(-293.668 -279.228)" fill="#ffb9b9"/>
      <circle id="Ellipse_20" data-name="Ellipse 20" cx="6.963" cy="6.963" r="6.963" transform="translate(101.742 49.862)" fill="#ffb9b9"/>
      <path id="Path_326" data-name="Path 326" d="M369.657,359.983s4.893-.565,7.34,2.447a30.352,30.352,0,0,1,2.823,3.764s5.834,9.41,4.7,14.115a13.609,13.609,0,0,0-.753,1.317c-.376.753-.376,11.292,0,12.986a9.209,9.209,0,0,1,.376,4.705c-.376,2.447,3.011,6.4-.941,7.152s-6.963.188-8.281-1.506-.188-2.823-4.329-2.823a9.959,9.959,0,0,1-6.775-2.823s2.07-2.258,1.317-2.635,0-1.317.376-2.258.376-1.694-.188-1.694-.188-.376.188-1.317-6.587-17.126-2.447-21.831,6.211-7.34,6.211-7.34S368.528,359.418,369.657,359.983Z" transform="translate(-270.268 -296.1)" fill="#2f2e41"/>
      <path id="Path_327" data-name="Path 327" d="M408.154,431v8.281l6.022,19.949s3.952,10.351,0,10.351-3.74-9.88-3.74-9.88l-8.493-14.963s-3.388-11.857-3.011-12.8S408.154,431,408.154,431Z" transform="translate(-298.037 -349.237)" fill="#ffb9b9"/>
      <path id="Path_328" data-name="Path 328" d="M402.606,382.554s5.646,2.258,4.14,8.281,0,5.834,0,5.834-7.716-.753-10.163.941l-.565-2.258S393.76,382.366,402.606,382.554Z" transform="translate(-295.689 -313.025)" fill="#2f2e41"/>
      <path id="Path_329" data-name="Path 329" d="M400.11,295.429a2.779,2.779,0,0,0,2.61-.406,2.1,2.1,0,0,0,.593-2.482,3.321,3.321,0,0,0-1.87-1.385,17.383,17.383,0,0,0-5.094-1.15,4.635,4.635,0,0,0-2.45.33c-.368.188-.687.46-1.051.655a12.5,12.5,0,0,1-2.172.669,5.436,5.436,0,0,0-3.322,3.054,6.551,6.551,0,0,0-.409,1.516,8.444,8.444,0,0,0,.439,4.227c.8,2.136,2.485,4,2.58,6.283,1.03-.747,1.412-2.1,2.237-3.064a4.168,4.168,0,0,1,2.379-1.38,1.325,1.325,0,0,0,.709-.259,1.141,1.141,0,0,0,.259-.6l.7-3.327a2.9,2.9,0,0,1,.881-1.827,2.666,2.666,0,0,1,1.149-.4,18.015,18.015,0,0,1,2.942-.268" transform="translate(-289.027 -243.831)" fill="#2f2e41"/>
    </g>
    <path id="Path_20" data-name="Path 20" d="M22.019,19.985l-17.573,3A1.778,1.778,0,0,1,2.433,21.7c-1.27-4.62-3.924-10.646-1.347-13.672A4.942,4.942,0,0,1,6.279,3.578h0c3.139-4.954,8.368-4.21,11.9-1.116C21.738,3.7,23.079,5.9,22.61,8.88a6.918,6.918,0,0,1,2.512,4.56,6.617,6.617,0,0,1-1.787,5.123Z" transform="translate(266.299 117.396) rotate(9)" fill="#2f2e41"/>
    <path id="Path_21" data-name="Path 21" d="M13.623,9.695,0,8.887A15.2,15.2,0,0,0,1.336,0H11.486C11.463,2.168,12.533,5.917,13.623,9.695Z" transform="translate(268.101 142.221) rotate(9)" fill="#9f616a"/>
    <ellipse id="Ellipse_5" data-name="Ellipse 5" cx="10.117" cy="10.199" rx="10.117" ry="10.199" transform="translate(267.385 124.765) rotate(9)" fill="#9f616a"/>
    <path id="Path_25" data-name="Path 25" d="M20.908,6.714A29.963,29.963,0,0,0,8.84,6.809,17.44,17.44,0,0,1,0,6.878V0L18.024.328Z" transform="translate(268.206 123.491) rotate(9)" fill="#2f2e41"/>
    <path id="Path_26" data-name="Path 26" d="M15.671,7.295a18.375,18.375,0,0,1-13.9,0C3.18,4.876,1.079,2.982,0,.54L18.036,0C16.657,2.121,14.622,4.627,15.671,7.295Z" transform="translate(266.815 135.901) rotate(9)" fill="#fff"/>
    <path id="Path_84" data-name="Path 84" d="M.009,0H.288L.278,2.317H0Z" transform="matrix(0.755, -0.656, 0.656, 0.755, 265.74, 135.051)" fill="#fff"/>
    <path id="Path_85" data-name="Path 85" d="M0,.021,5.817,0V.278L0,.3Z" transform="translate(280.268 145.148) rotate(-49)" fill="#fff"/>
    <path id="Path_86" data-name="Path 86" d="M.021,0H.3L.278,5.816H0Z" transform="matrix(0.921, -0.391, 0.391, 0.921, 265.934, 137.098)" fill="#fff"/>
    <path id="Path_27" data-name="Path 27" d="M7.746,30.431,0,25.583,6.606,6.077A9.183,9.183,0,0,1,10.6,1.3L12.822,0l.193,19.679Z" transform="translate(246.713 147.184) rotate(9)" fill="#7c7c7c"/>
    <path id="Path_28" data-name="Path 28" d="M35.015,44.213l-1.146-9.9a34.965,34.965,0,0,1,2.922-14.927L37.86,4.847,26.107,0c-.036.241-.067.483-.1.724L20.5,3.5,15.125,2.27l.03-1.731L4.47,5.386C8,21.947,6.076,39.146,0,59.46l14.076,3.88.117-6.814,12.545-.9c.129,2.211.233,4.382.293,6.506,7.079,2.627,7.322,2.584,13.772-1.178A76.721,76.721,0,0,1,35.015,44.213Z" transform="translate(253.525 143.9) rotate(9)" fill="#7c7c7c"/>
    <path id="Path_29" data-name="Path 29" d="M18.749,27.468l-7.212-2.424L0,11.505,3.523,0,19.55,22.621Z" transform="translate(286.681 154.059) rotate(9)" fill="#7c7c7c"/>
    <path id="Path_30" data-name="Path 30" d="M.05,3.814a2.006,2.006,0,0,0,2.4,1.524l6.122-1.4L7.684,0,1.561,1.4A2.02,2.02,0,0,0,.05,3.814Z" transform="translate(277.485 187.165) rotate(9)" fill="#e6e6e6"/>
    <path id="Path_31" data-name="Path 31" d="M0,10.772l3.473,6.463c5.841-1.642,10.9-6.82,15.76-12.926L17.9,0,9.616,2.154Z" transform="translate(284.775 176.661) rotate(9)" fill="#7c7c7c"/>
    <path id="Path_32" data-name="Path 32" d="M0,0,6.666,1.2,21.9,23.043l-8.095-1.92Z" transform="translate(241.542 160.193) rotate(9)" fill="#e6e6e6"/>
    <path id="Path_33" data-name="Path 33" d="M.558,0A.566.566,0,0,0,.066.3.576.576,0,0,0,.093.886L14.336,22.672a.565.565,0,0,0,.343.242l6.627,1.572a.564.564,0,0,0,.6-.236A.574.574,0,0,0,21.9,23.6L6.261,1.185A.562.562,0,0,0,5.9.952L.665.01A.6.6,0,0,0,.558,0Z" transform="translate(239.865 159.657) rotate(9)" fill="#3f3d56"/>
    <path id="Path_34" data-name="Path 34" d="M0,.635l.4,4.02L6.642,4.03a2.02,2.02,0,0,0-.4-4.02Z" transform="translate(246.854 175.892) rotate(9)" fill="#7c7c7c"/>
    <path id="Path_36" data-name="Path 36" d="M.229,3.01,0,2.78l.346-.349L2.412,0l.246.212L.583,2.652Z" transform="translate(279.955 175.683) rotate(3)" fill="#fff"/>
  </g>
</svg>
